<svg width="36" height="38" viewBox="0 0 36 38" fill="none" xmlns="http://www.w3.org/2000/svg">
<path d="M10.44 0H25.56C31.32 0 36 4.94 36 11.02V26.98C36 29.9027 34.9001 32.7057 32.9422 34.7723C30.9843 36.839 28.3289 38 25.56 38H10.44C4.68 38 0 33.06 0 26.98V11.02C0 8.09731 1.09993 5.29433 3.05781 3.22768C5.01569 1.16103 7.67114 0 10.44 0ZM10.08 3.8C8.3614 3.8 6.71318 4.52064 5.49795 5.80339C4.28271 7.08614 3.6 8.82592 3.6 10.64V27.36C3.6 31.141 6.498 34.2 10.08 34.2H25.92C27.6386 34.2 29.2868 33.4794 30.5021 32.1966C31.7173 30.9139 32.4 29.1741 32.4 27.36V10.64C32.4 6.859 29.502 3.8 25.92 3.8H10.08ZM27.45 6.65C28.0467 6.65 28.619 6.90022 29.041 7.34562C29.4629 7.79102 29.7 8.39511 29.7 9.025C29.7 9.65489 29.4629 10.259 29.041 10.7044C28.619 11.1498 28.0467 11.4 27.45 11.4C26.8533 11.4 26.281 11.1498 25.859 10.7044C25.437 10.259 25.2 9.65489 25.2 9.025C25.2 8.39511 25.437 7.79102 25.859 7.34562C26.281 6.90022 26.8533 6.65 27.45 6.65ZM18 9.5C20.3869 9.5 22.6761 10.5009 24.364 12.2825C26.0518 14.0641 27 16.4804 27 19C27 21.5196 26.0518 23.9359 24.364 25.7175C22.6761 27.4991 20.3869 28.5 18 28.5C15.6131 28.5 13.3239 27.4991 11.636 25.7175C9.94821 23.9359 9 21.5196 9 19C9 16.4804 9.94821 14.0641 11.636 12.2825C13.3239 10.5009 15.6131 9.5 18 9.5ZM18 13.3C16.5678 13.3 15.1943 13.9005 14.1816 14.9695C13.1689 16.0384 12.6 17.4883 12.6 19C12.6 20.5117 13.1689 21.9616 14.1816 23.0305C15.1943 24.0995 16.5678 24.7 18 24.7C19.4322 24.7 20.8057 24.0995 21.8184 23.0305C22.8311 21.9616 23.4 20.5117 23.4 19C23.4 17.4883 22.8311 16.0384 21.8184 14.9695C20.8057 13.9005 19.4322 13.3 18 13.3Z" fill="#0A3349"/>
</svg>
