<svg width="60" height="60" viewBox="0 0 60 60" fill="none" xmlns="http://www.w3.org/2000/svg">
<path fill-rule="evenodd" clip-rule="evenodd" d="M0.106118 21.9472C0.710595 15.9666 4.03898 10.3904 9.43097 6.325C14.823 2.25958 21.8846 0.00195336 29.2149 0H30.7848C38.1151 0.00195336 45.1767 2.25958 50.5687 6.325C55.9607 10.3904 59.2891 15.9666 59.8935 21.9472C60.5643 28.6246 58.0463 35.2547 52.8689 40.4434L35.4509 57.8834C34.7907 58.5449 33.9592 59.0779 33.0164 59.444C32.0736 59.8101 31.0433 60 29.9998 60C28.9564 60 27.926 59.8101 26.9833 59.444C26.0405 59.0779 25.2089 58.5449 24.5488 57.8834L7.13438 40.4434C1.95571 35.2551 -0.56365 28.625 0.106118 21.9472ZM29.9998 11.1566C25.4217 11.1566 21.0311 12.6455 17.7939 15.2957C14.5567 17.9459 12.7381 21.5403 12.7381 25.2883C12.7381 29.0362 14.5567 32.6307 17.7939 35.2809C21.0311 37.9311 25.4217 39.42 29.9998 39.42C34.5779 39.42 38.9685 37.9311 42.2057 35.2809C45.4429 32.6307 47.2616 29.0362 47.2616 25.2883C47.2616 21.5403 45.4429 17.9459 42.2057 15.2957C38.9685 12.6455 34.5779 11.1566 29.9998 11.1566Z" fill="#002F48"/>
<path d="M18.1563 24.548C18.1562 21.9836 19.4006 19.5242 21.6155 17.7109C23.8304 15.8976 26.8345 14.8789 29.9669 14.8789C33.0993 14.8789 36.1034 15.8976 38.3183 17.7109C40.5333 19.5242 41.7776 21.9836 41.7776 24.548C41.7776 27.1123 40.5333 29.5717 38.3183 31.385C36.1034 33.1983 33.0993 34.217 29.9669 34.217C26.8345 34.217 23.8304 33.1983 21.6155 31.385C19.4006 29.5717 18.1563 27.1123 18.1563 24.548Z" fill="#002F48"/>
</svg>
