<svg width="60" height="60" viewBox="0 0 60 60" fill="none" xmlns="http://www.w3.org/2000/svg">
<path fill-rule="evenodd" clip-rule="evenodd" d="M29.9443 6.4306C28.1527 6.39825 26.3723 6.7195 24.7051 7.37597C23.0378 8.03244 21.5163 9.01124 20.2278 10.2564C18.9392 11.5015 17.9089 12.9885 17.1957 14.6322C16.4825 16.276 16.1004 18.0442 16.0714 19.8358V38.5722C16.0714 39.7088 15.6199 40.7989 14.8162 41.6026C14.0124 42.4063 12.9224 42.8578 11.7857 42.8578H6.42857C4.72361 42.8578 3.08848 42.1805 1.88288 40.975C0.677294 39.7694 0 38.1344 0 36.4295L0 27.8584C0 26.1535 0.677294 24.5184 1.88288 23.3128C3.08848 22.1073 4.72361 21.43 6.42857 21.43H9.64286V19.7587C9.68196 17.1247 10.2396 14.5243 11.2838 12.1059C12.3281 9.68749 13.8385 7.49847 15.7289 5.66386C17.6193 3.82926 19.8526 2.385 22.3013 1.41357C24.7499 0.442147 27.366 -0.037414 30 0.00227697C32.634 -0.037414 35.2501 0.442147 37.6987 1.41357C40.1474 2.385 42.3807 3.82926 44.2711 5.66386C46.1615 7.49847 47.6719 9.68749 48.7162 12.1059C49.7604 14.5243 50.318 17.1247 50.3571 19.7587V21.43H53.5714C55.2764 21.43 56.9115 22.1073 58.1171 23.3128C59.3227 24.5184 60 26.1535 60 27.8584V36.4295C60 38.1344 59.3227 39.7694 58.1171 40.975C56.9115 42.1805 55.2764 42.8578 53.5714 42.8578H50.3571V45.0006C50.3577 47.8966 49.2919 50.6914 47.3631 52.8517C45.4344 55.012 42.7777 56.3865 39.9 56.713C39.3412 57.7107 38.5263 58.5413 37.5394 59.1191C36.5525 59.6969 35.4293 60.001 34.2857 60H27.8571C26.1522 60 24.517 59.3227 23.3115 58.1172C22.1059 56.9116 21.4286 55.2766 21.4286 53.5717C21.4286 51.8668 22.1059 50.2317 23.3115 49.0262C24.517 47.8206 26.1522 47.1433 27.8571 47.1433H34.2857C36.6086 47.1433 38.6443 48.3733 39.7714 50.2204C40.9527 49.9489 42.007 49.2849 42.762 48.3368C43.5171 47.3887 43.9283 46.2126 43.9286 45.0006V19.8315C43.8992 18.0307 43.5131 16.2536 42.7927 14.6029C42.0723 12.9523 41.0318 11.4607 39.7314 10.2146C38.4311 8.96848 36.8966 7.99245 35.2167 7.34295C33.5368 6.69345 31.7448 6.38336 29.9443 6.4306Z" fill="#002F48"/>
</svg>
