<svg width="40" height="42" viewBox="0 0 40 42" fill="none" xmlns="http://www.w3.org/2000/svg">
<path d="M20.0604 0.492188C21.7556 0.492188 23.4943 0.538276 25.1795 0.613694L27.1701 0.71425L29.0754 0.833661L30.8597 0.961452L32.4894 1.09553C34.2583 1.23775 35.9229 2.03496 37.1901 3.34674C38.4573 4.65852 39.2458 6.40071 39.4166 8.26647L39.4959 9.15681L39.6446 11.0632C39.7834 13.0387 39.8865 15.1923 39.8865 17.2516C39.8865 19.3109 39.7834 21.4645 39.6446 23.44L39.4959 25.3464L39.4166 26.2368C39.2457 28.1029 38.4569 29.8453 37.1893 31.1571C35.9217 32.469 34.2566 33.266 32.4874 33.4077L30.8617 33.5397L29.0773 33.6696L27.1701 33.789L25.1795 33.8895C23.4742 33.9676 21.7674 34.0081 20.0604 34.0111C18.3535 34.0081 16.6467 33.9676 14.9414 33.8895L12.9508 33.789L11.0455 33.6696L9.26119 33.5397L7.63148 33.4077C5.86263 33.2655 4.198 32.4683 2.93081 31.1565C1.66361 29.8447 0.875135 28.1025 0.704253 26.2368L0.624949 25.3464L0.476253 23.44C0.325243 21.381 0.244565 19.3168 0.234375 17.2516C0.234375 15.1923 0.337471 13.0387 0.476253 11.0632L0.624949 9.15681L0.704253 8.26647C0.875069 6.40105 1.66326 4.65911 2.93005 3.34738C4.19684 2.03564 5.861 1.23823 7.6295 1.09553L9.25722 0.961452L11.0416 0.833661L12.9488 0.71425L14.9394 0.613694C16.6454 0.53561 18.3528 0.495099 20.0604 0.492188ZM20.0604 4.68205C18.4248 4.68205 16.7416 4.72813 15.1039 4.79936L13.1649 4.89782L11.3033 5.01304L9.55461 5.13874L7.95267 5.27072C7.11044 5.33302 6.3164 5.70883 5.71165 6.33135C5.10689 6.95387 4.7306 7.78278 4.64964 8.67079C4.41768 11.2036 4.19959 14.3564 4.19959 17.2516C4.19959 20.1468 4.41768 23.2997 4.64964 25.8324C4.81816 27.6592 6.19013 29.0796 7.95267 29.2325L9.55461 29.3624L11.3033 29.4881L13.1649 29.6054L15.1039 29.7039C16.7416 29.7751 18.4248 29.8212 20.0604 29.8212C21.6961 29.8212 23.3793 29.7751 25.017 29.7039L26.956 29.6054L28.8176 29.4902L30.5663 29.3645L32.1682 29.2325C33.0105 29.1702 33.8045 28.7944 34.4092 28.1719C35.014 27.5494 35.3903 26.7205 35.4713 25.8324C35.7032 23.2997 35.9213 20.1468 35.9213 17.2516C35.9213 14.3564 35.7032 11.2036 35.4713 8.67079C35.3903 7.78278 35.014 6.95387 34.4092 6.33135C33.8045 5.70883 33.0105 5.33302 32.1682 5.27072L30.5663 5.14083L28.8176 5.01514L26.956 4.89782L25.017 4.79936C23.3657 4.72447 21.7132 4.68536 20.0604 4.68205ZM16.0952 12.1714C16.0951 11.9667 16.1423 11.765 16.2328 11.5839C16.3232 11.4028 16.4541 11.2478 16.6142 11.1324C16.7742 11.017 16.9585 10.9446 17.1511 10.9216C17.3436 10.8986 17.5386 10.9256 17.719 11.0004L17.8796 11.0841L26.2065 16.1623C26.3723 16.2634 26.5126 16.4052 26.6154 16.5759C26.7183 16.7465 26.7806 16.9408 26.7971 17.1424C26.8137 17.3439 26.7839 17.5467 26.7105 17.7335C26.637 17.9202 26.5219 18.0855 26.3751 18.2153L26.2065 18.341L17.8796 23.4212C17.7118 23.5239 17.5228 23.5816 17.329 23.5895C17.1352 23.5973 16.9426 23.555 16.7678 23.4662C16.5931 23.3774 16.4416 23.2448 16.3264 23.0799C16.2112 22.9151 16.136 22.723 16.1071 22.5204L16.0952 22.3318V12.1714Z" fill="#0A3349"/>
</svg>
